<?xml version="1.0" standalone="no"?><svg xmlns:xlink="http://www.w3.org/1999/xlink" xmlns="http://www.w3.org/2000/svg" viewBox="0 0 1400 1400" preserveAspectRatio="xMaxYMax slice"><g transform="scale(3.292568203198495)"><rect x="0" y="0" width="425.20000000000005" height="425.20000000000005" fill="#fffafa"/><circle cx="21.26" cy="21.26" r="4.25" fill="#cc3adf"/><circle cx="63.78" cy="21.26" r="4.25" fill="#cc3adf"/><circle cx="106.3" cy="21.26" r="4.25" fill="#5856D6"/><circle cx="148.82" cy="21.26" r="4.25" fill="#5856D6"/><circle cx="191.34" cy="21.26" r="4.25" fill="#cc3adf"/><circle cx="233.86" cy="21.26" r="4.25" fill="#cc3adf"/><circle cx="276.38" cy="21.26" r="4.25" fill="#cc3adf"/><circle cx="318.9" cy="21.26" r="4.25" fill="#cc3adf"/><circle cx="361.42" cy="21.26" r="4.25" fill="#cc3adf"/><circle cx="403.94" cy="21.26" r="4.25" fill="#5856D6"/><circle cx="21.26" cy="63.78" r="4.25" fill="#cc3adf"/><circle cx="63.78" cy="63.78" r="5.23" fill="#cc3adf"/><circle cx="106.3" cy="63.78" r="6.21" fill="#cc3adf"/><circle cx="148.82" cy="63.78" r="7.19" fill="#5856D6"/><circle cx="191.33999999999997" cy="63.78" r="8.17" fill="#cc3adf"/><circle cx="233.865" cy="63.785000000000004" r="8.335" fill="#5856D6"/><circle cx="276.38" cy="63.78" r="8.17" fill="#cc3adf"/><circle cx="318.9" cy="63.78" r="7.19" fill="#cc3adf"/><circle cx="361.41999999999996" cy="63.78" r="6.21" fill="#5856D6"/><circle cx="403.94" cy="63.78" r="5.23" fill="#cc3adf"/><circle cx="21.26" cy="106.3" r="4.25" fill="#5856D6"/><circle cx="63.78" cy="106.3" r="6.21" fill="#cc3adf"/><circle cx="106.3" cy="106.3" r="8.17" fill="#cc3adf"/><circle cx="148.82" cy="106.3" r="10.13" fill="#5856D6"/><circle cx="191.34" cy="106.3" r="12.09" fill="#cc3adf"/><circle cx="233.855" cy="106.29499999999999" r="12.415" fill="#cc3adf"/><circle cx="276.38" cy="106.3" r="12.09" fill="#cc3adf"/><circle cx="318.9" cy="106.3" r="10.13" fill="#cc3adf"/><circle cx="361.42" cy="106.3" r="8.17" fill="#5856D6"/><circle cx="403.94" cy="106.3" r="6.21" fill="#5856D6"/><circle cx="21.26" cy="148.82" r="4.25" fill="#5856D6"/><circle cx="63.78" cy="148.82" r="7.19" fill="#cc3adf"/><circle cx="106.3" cy="148.82" r="10.13" fill="#5856D6"/><circle cx="148.82" cy="148.82" r="13.07" fill="#5856D6"/><circle cx="191.34" cy="148.82" r="16.01" fill="#cc3adf"/><circle cx="233.86" cy="148.82" r="16.5" fill="#5856D6"/><circle cx="276.38" cy="148.82" r="16.01" fill="#cc3adf"/><circle cx="318.9" cy="148.82" r="13.07" fill="#5856D6"/><circle cx="361.42" cy="148.82" r="10.13" fill="#5856D6"/><circle cx="403.94" cy="148.82" r="7.19" fill="#5856D6"/><circle cx="21.26" cy="191.34" r="4.25" fill="#5856D6"/><circle cx="63.78" cy="191.33999999999997" r="8.17" fill="#cc3adf"/><circle cx="106.3" cy="191.34" r="12.09" fill="#5856D6"/><circle cx="148.82" cy="191.34" r="16.01" fill="#cc3adf"/><circle cx="191.335" cy="191.335" r="19.925" fill="#5856D6"/><circle cx="233.86" cy="191.33999999999997" r="20.58" fill="#5856D6"/><circle cx="276.375" cy="191.335" r="19.925" fill="#5856D6"/><circle cx="318.9" cy="191.34" r="16.01" fill="#5856D6"/><circle cx="361.41999999999996" cy="191.34" r="12.09" fill="#5856D6"/><circle cx="403.94" cy="191.33999999999997" r="8.17" fill="#5856D6"/><circle cx="21.26" cy="233.86" r="4.25" fill="#5856D6"/><circle cx="63.785000000000004" cy="233.865" r="8.335" fill="#cc3adf"/><circle cx="106.29499999999999" cy="233.855" r="12.415" fill="#cc3adf"/><circle cx="148.82" cy="233.86" r="16.5" fill="#cc3adf"/><circle cx="191.33999999999997" cy="233.86" r="20.58" fill="#5856D6"/><circle cx="233.85999999999999" cy="233.85999999999999" r="21.26" fill="#cc3adf"/><circle cx="276.38" cy="233.86" r="20.58" fill="#5856D6"/><circle cx="318.9" cy="233.86" r="16.5" fill="#5856D6"/><circle cx="361.415" cy="233.855" r="12.415" fill="#cc3adf"/><circle cx="403.945" cy="233.865" r="8.335" fill="#cc3adf"/><circle cx="21.26" cy="276.38" r="4.25" fill="#5856D6"/><circle cx="63.78" cy="276.38" r="8.17" fill="#cc3adf"/><circle cx="106.3" cy="276.38" r="12.09" fill="#5856D6"/><circle cx="148.82" cy="276.38" r="16.01" fill="#5856D6"/><circle cx="191.335" cy="276.375" r="19.925" fill="#cc3adf"/><circle cx="233.86" cy="276.38" r="20.58" fill="#cc3adf"/><circle cx="276.375" cy="276.375" r="19.925" fill="#cc3adf"/><circle cx="318.9" cy="276.38" r="16.01" fill="#cc3adf"/><circle cx="361.41999999999996" cy="276.38" r="12.09" fill="#cc3adf"/><circle cx="403.94" cy="276.38" r="8.17" fill="#cc3adf"/><circle cx="21.26" cy="318.9" r="4.25" fill="#cc3adf"/><circle cx="63.78" cy="318.9" r="7.19" fill="#cc3adf"/><circle cx="106.3" cy="318.9" r="10.13" fill="#5856D6"/><circle cx="148.82" cy="318.9" r="13.07" fill="#5856D6"/><circle cx="191.34" cy="318.9" r="16.01" fill="#cc3adf"/><circle cx="233.86" cy="318.9" r="16.5" fill="#cc3adf"/><circle cx="276.38" cy="318.9" r="16.01" fill="#cc3adf"/><circle cx="318.9" cy="318.9" r="13.07" fill="#5856D6"/><circle cx="361.42" cy="318.9" r="10.13" fill="#cc3adf"/><circle cx="403.94" cy="318.9" r="7.19" fill="#5856D6"/><circle cx="21.26" cy="361.42" r="4.25" fill="#5856D6"/><circle cx="63.78" cy="361.41999999999996" r="6.21" fill="#5856D6"/><circle cx="106.3" cy="361.42" r="8.17" fill="#5856D6"/><circle cx="148.82" cy="361.42" r="10.13" fill="#cc3adf"/><circle cx="191.34" cy="361.41999999999996" r="12.09" fill="#5856D6"/><circle cx="233.855" cy="361.415" r="12.415" fill="#cc3adf"/><circle cx="276.38" cy="361.41999999999996" r="12.09" fill="#5856D6"/><circle cx="318.9" cy="361.42" r="10.13" fill="#cc3adf"/><circle cx="361.42" cy="361.42" r="8.17" fill="#5856D6"/><circle cx="403.94" cy="361.41999999999996" r="6.21" fill="#cc3adf"/><circle cx="21.26" cy="403.94" r="4.25" fill="#cc3adf"/><circle cx="63.78" cy="403.94" r="5.23" fill="#cc3adf"/><circle cx="106.3" cy="403.94" r="6.21" fill="#5856D6"/><circle cx="148.82" cy="403.94" r="7.19" fill="#cc3adf"/><circle cx="191.33999999999997" cy="403.94" r="8.17" fill="#cc3adf"/><circle cx="233.865" cy="403.945" r="8.335" fill="#5856D6"/><circle cx="276.38" cy="403.94" r="8.17" fill="#5856D6"/><circle cx="318.9" cy="403.94" r="7.19" fill="#5856D6"/><circle cx="361.41999999999996" cy="403.94" r="6.21" fill="#cc3adf"/><circle cx="403.94" cy="403.94" r="5.23" fill="#5856D6"/></g></svg>